<svg width="44" height="44" viewBox="0 0 44 44" fill="none" xmlns="http://www.w3.org/2000/svg">
<path d="M15.2061 33.1904H29.751C31.5557 33.1904 32.6191 32.127 32.6191 30.4082V20.7832L33.6182 21.6104C33.9404 21.8896 34.3271 22.083 34.7139 22.083C35.541 22.083 36.1211 21.5674 36.1211 20.7725C36.1211 20.3428 35.9277 19.9346 35.5625 19.6338L32.6191 17.1631V12.3828C32.6191 11.8779 32.2969 11.5557 31.8027 11.5557H29.8262C29.3213 11.5557 28.9883 11.8779 28.9883 12.3828V14.1016L24.3906 10.2451C23.252 9.28906 21.7695 9.28906 20.6309 10.2451L9.4375 19.6445C9.07227 19.9453 8.87891 20.3643 8.87891 20.7617C8.87891 21.5137 9.42676 22.083 10.2861 22.083C10.6836 22.083 11.0703 21.8896 11.3926 21.6104L12.3379 20.8262V30.4082C12.3379 32.127 13.4014 33.1904 15.2061 33.1904ZM25.5723 23.6299C25.5723 23.1143 25.2393 22.7812 24.7236 22.7812H20.2764C19.7607 22.7812 19.417 23.1143 19.417 23.6299V30.4189H16.1084C15.4639 30.4189 15.1094 30.0537 15.1094 29.4092V18.4951L21.9199 12.791C22.2959 12.458 22.7148 12.458 23.1123 12.791L29.8477 18.4521V29.4092C29.8477 30.0537 29.4932 30.4189 28.8594 30.4189H25.5723V23.6299Z" fill="white"/>
</svg>
